<svg xmlns="http://www.w3.org/2000/svg"><symbol viewBox="0 0 30 30" id="icon-alarm"><title>icon-alarm</title><path fill="#FFF" fill-rule="evenodd" d="M2.014 18.977a1.739 1.739 0 01.96 3.188 13.104 13.104 0 005.126 4.87l-.001-2.176a12.115 12.115 0 006.086 1.628c2.217 0 4.295-.592 6.086-1.628v4.106a1 1 0 01-1 1H9.1a1 1 0 01-1-1l-.001-.955a13.972 13.972 0 01-5.966-5.562l-.12.006a1.739 1.739 0 010-3.477zM14.185 3.014c6.242 0 11.302 5.06 11.302 11.302s-5.06 11.302-11.302 11.302-11.302-5.06-11.302-11.302S7.943 3.014 14.185 3.014zm0 8.694a2.608 2.608 0 100 5.216 2.608 2.608 0 000-5.216zm6.641-8.638a.87.87 0 011.213-.205c2.107 1.499 3.648 3.256 4.606 5.27a.87.87 0 01-1.57.747c-.825-1.734-2.168-3.266-4.044-4.6a.87.87 0 01-.205-1.212zM21.47.374a.87.87 0 011.198-.277c3.157 1.968 5.41 4.52 6.734 7.642a.87.87 0 01-1.601.68c-1.181-2.784-3.191-5.062-6.053-6.847a.87.87 0 01-.278-1.198z"/></symbol><symbol viewBox="0 0 40 31" id="icon-city"><title>icon-city</title><path fill="#FFF" fill-rule="evenodd" d="M17.23.965a.5.5 0 01.5.5v29.5H.587v-29.5a.5.5 0 01.5-.5H17.23zm21.428 8.558a.5.5 0 01.5.5v20.929H22.015V10.023a.5.5 0 01.5-.5h16.143zM7.015 20.25H2.73v4.286h4.285V20.25zm8.572 0H11.3v4.286h4.286V20.25zm12.857-.012h-4.286v4.285h4.286v-4.285zm8.571 0H32.73v4.285h4.285v-4.285zm-30-8.559H2.73v4.286h4.285v-4.286zm8.572 0H11.3v4.286h4.286v-4.286zm12.857-.013h-4.286v4.286h4.286v-4.286zm8.571 0H32.73v4.286h4.285v-4.286zm-30-8.558H2.73v4.285h4.285V3.108zm8.572 0H11.3v4.285h4.286V3.108z"/></symbol><symbol viewBox="0 0 34 30" id="icon-crime"><title>icon-crime</title><path fill="#FFF" fill-rule="evenodd" d="M12.673 4.824L18.64.142a.83.83 0 011.167.144l2.359 3.032a9.957 9.957 0 019.257 3.758c3.394 4.364 2.623 10.666-1.72 14.075a9.927 9.927 0 01-8.284 1.893 11.76 11.76 0 00.413-3.338 6.621 6.621 0 005.822-1.189c2.896-2.273 3.41-6.474 1.146-9.383a6.635 6.635 0 00-9.34-1.152 6.651 6.651 0 00-2.073 2.758c-.177-.14-.358-.274-.544-.404V7.404a2.501 2.501 0 00-2.496-2.507h-1.682a2.507 2.507 0 01-.94 1.671h2.622c.46 0 .832.374.832.836v3.848a10.031 10.031 0 014.991 8.686c0 5.537-4.469 10.027-9.982 10.027-5.513 0-9.982-4.49-9.982-10.027 0-3.712 2.007-6.952 4.99-8.686V7.404c0-.462.373-.836.833-.836H8.65a2.506 2.506 0 01-.959-1.975 2.501 2.501 0 012.496-2.507 2.501 2.501 0 012.485 2.738zm-3.296.722a.833.833 0 01.811-.65c.396 0 .727.278.811.65.267-.23.437-.572.437-.953a1.25 1.25 0 00-1.248-1.253A1.25 1.25 0 008.94 4.593c0 .381.17.723.437.953zm.34 3.305l-.36 1.972h1.663l-.342-1.979h-.01a.836.836 0 00-.48-1.517.836.836 0 00-.472 1.524zm.471 17.771c3.675 0 6.655-2.993 6.655-6.684 0-3.692-2.98-6.685-6.655-6.685-3.675 0-6.655 2.993-6.655 6.685 0 3.691 2.98 6.684 6.655 6.684z"/></symbol><symbol viewBox="0 0 28 31" id="icon-home"><title>icon-home</title><path fill="#FFF" fill-rule="evenodd" d="M3.89 29.307V15.246H1.396c-.92 0-1.16-.534-.53-1.201L12.741 1.464a1.537 1.537 0 012.266 0l11.875 12.58c.626.664.377 1.202-.53 1.202h-2.487v14.061a1.67 1.67 0 01-1.669 1.658h-4.99v-8.828h-6.659v8.828h-4.99c-.922 0-1.669-.74-1.669-1.658z"/></symbol><symbol viewBox="0 0 28 30" id="icon-police"><title>icon-police</title><path fill="#FFF" fill-rule="evenodd" d="M13.872-.035c6.063 5.166 11.096.948 11.096.948l2.275 3.65c-3.792 3.412-1.359 7.362.142 14.36 1.563 7.286-5.498 8.367-5.498 8.367-5.008 1.422-7.075 1.626-7.583 2.217-.058.067-.351.371-.432.458-.08-.087-.373-.39-.43-.458-.51-.59-2.576-.795-7.584-2.217 0 0-7.06-1.08-5.498-8.366 1.5-7 3.934-10.949.142-14.362L2.777.912s5.033 4.22 11.095-.947zm.445 8.177c-.25-.505-.644-.498-.889 0l-2.042 4.138-4.566.663c-.558.081-.672.458-.275.846l3.304 3.22-.78 4.548c-.095.556.228.78.72.523l4.084-2.147 4.084 2.147c.498.262.813.024.719-.523l-.78-4.548 3.304-3.22c.404-.394.274-.766-.275-.846l-4.566-.663z"/></symbol></svg>