<svg xmlns="http://www.w3.org/2000/svg" viewBox="0 0 40 31"><path fill="#FFF" fill-rule="evenodd" d="M17.23.965a.5.5 0 01.5.5v29.5H.587v-29.5a.5.5 0 01.5-.5H17.23zm21.428 8.558a.5.5 0 01.5.5v20.929H22.015V10.023a.5.5 0 01.5-.5h16.143zM7.015 20.25H2.73v4.286h4.285V20.25zm8.572 0H11.3v4.286h4.286V20.25zm12.857-.012h-4.286v4.285h4.286v-4.285zm8.571 0H32.73v4.285h4.285v-4.285zm-30-8.559H2.73v4.286h4.285v-4.286zm8.572 0H11.3v4.286h4.286v-4.286zm12.857-.013h-4.286v4.286h4.286v-4.286zm8.571 0H32.73v4.286h4.285v-4.286zm-30-8.558H2.73v4.285h4.285V3.108zm8.572 0H11.3v4.285h4.286V3.108z"/></svg>