<svg xmlns="http://www.w3.org/2000/svg" viewBox="0 0 34 30"><path fill="#FFF" fill-rule="evenodd" d="M12.673 4.824L18.64.142a.83.83 0 011.167.144l2.359 3.032a9.957 9.957 0 019.257 3.758c3.394 4.364 2.623 10.666-1.72 14.075a9.927 9.927 0 01-8.284 1.893 11.76 11.76 0 00.413-3.338 6.621 6.621 0 005.822-1.189c2.896-2.273 3.41-6.474 1.146-9.383a6.635 6.635 0 00-9.34-1.152 6.651 6.651 0 00-2.073 2.758c-.177-.14-.358-.274-.544-.404V7.404a2.501 2.501 0 00-2.496-2.507h-1.682a2.507 2.507 0 01-.94 1.671h2.622c.46 0 .832.374.832.836v3.848a10.031 10.031 0 014.991 8.686c0 5.537-4.469 10.027-9.982 10.027-5.513 0-9.982-4.49-9.982-10.027 0-3.712 2.007-6.952 4.99-8.686V7.404c0-.462.373-.836.833-.836H8.65a2.506 2.506 0 01-.959-1.975 2.501 2.501 0 012.496-2.507 2.501 2.501 0 012.485 2.738zm-3.296.722a.833.833 0 01.811-.65c.396 0 .727.278.811.65.267-.23.437-.572.437-.953a1.25 1.25 0 00-1.248-1.253A1.25 1.25 0 008.94 4.593c0 .381.17.723.437.953zm.34 3.305l-.36 1.972h1.663l-.342-1.979h-.01a.836.836 0 00-.48-1.517.836.836 0 00-.472 1.524zm.471 17.771c3.675 0 6.655-2.993 6.655-6.684 0-3.692-2.98-6.685-6.655-6.685-3.675 0-6.655 2.993-6.655 6.685 0 3.691 2.98 6.684 6.655 6.684z"/></svg>