<svg xmlns="http://www.w3.org/2000/svg" viewBox="0 0 28 30"><path fill="#FFF" fill-rule="evenodd" d="M13.872-.035c6.063 5.166 11.096.948 11.096.948l2.275 3.65c-3.792 3.412-1.359 7.362.142 14.36 1.563 7.286-5.498 8.367-5.498 8.367-5.008 1.422-7.075 1.626-7.583 2.217-.058.067-.351.371-.432.458-.08-.087-.373-.39-.43-.458-.51-.59-2.576-.795-7.584-2.217 0 0-7.06-1.08-5.498-8.366 1.5-7 3.934-10.949.142-14.362L2.777.912s5.033 4.22 11.095-.947zm.445 8.177c-.25-.505-.644-.498-.889 0l-2.042 4.138-4.566.663c-.558.081-.672.458-.275.846l3.304 3.22-.78 4.548c-.095.556.228.78.72.523l4.084-2.147 4.084 2.147c.498.262.813.024.719-.523l-.78-4.548 3.304-3.22c.404-.394.274-.766-.275-.846l-4.566-.663z"/></svg>