<svg xmlns="http://www.w3.org/2000/svg" viewBox="0 0 30 30"><path fill="#FFF" fill-rule="evenodd" d="M2.014 18.977a1.739 1.739 0 01.96 3.188 13.104 13.104 0 005.126 4.87l-.001-2.176a12.115 12.115 0 006.086 1.628c2.217 0 4.295-.592 6.086-1.628v4.106a1 1 0 01-1 1H9.1a1 1 0 01-1-1l-.001-.955a13.972 13.972 0 01-5.966-5.562l-.12.006a1.739 1.739 0 010-3.477zM14.185 3.014c6.242 0 11.302 5.06 11.302 11.302s-5.06 11.302-11.302 11.302-11.302-5.06-11.302-11.302S7.943 3.014 14.185 3.014zm0 8.694a2.608 2.608 0 100 5.216 2.608 2.608 0 000-5.216zm6.641-8.638a.87.87 0 011.213-.205c2.107 1.499 3.648 3.256 4.606 5.27a.87.87 0 01-1.57.747c-.825-1.734-2.168-3.266-4.044-4.6a.87.87 0 01-.205-1.212zM21.47.374a.87.87 0 011.198-.277c3.157 1.968 5.41 4.52 6.734 7.642a.87.87 0 01-1.601.68c-1.181-2.784-3.191-5.062-6.053-6.847a.87.87 0 01-.278-1.198z"/></svg>